<mxfile host="app.diagrams.net" modified="2020-10-18T20:29:24.516Z" agent="5.0 (Windows NT 10.0; Win64; x64) AppleWebKit/537.36 (KHTML, like Gecko) Chrome/86.0.4240.75 Safari/537.36" etag="uOucsxvLJKXcR-pYMNww" version="13.7.7" type="github">
  <diagram id="EQAblXRMS3McMeiPna58" name="Page-1">
    <mxGraphModel dx="2122" dy="737" grid="0" gridSize="10" guides="1" tooltips="1" connect="1" arrows="1" fold="1" page="1" pageScale="1" pageWidth="700" pageHeight="1000" background="#FFFFFF" math="0" shadow="0">
      <root>
        <mxCell id="0" />
        <mxCell id="1" parent="0" />
        <mxCell id="Dxom9o0QgRU7UbATrDRj-1" value="&lt;b&gt;&lt;font style=&quot;font-size: 18px&quot;&gt;Queue Reservation&lt;/font&gt;&lt;/b&gt;" style="text;html=1;strokeColor=none;fillColor=none;align=center;verticalAlign=middle;whiteSpace=wrap;rounded=0;" vertex="1" parent="1">
          <mxGeometry x="250" y="43" width="182" height="20" as="geometry" />
        </mxCell>
        <mxCell id="Dxom9o0QgRU7UbATrDRj-6" style="edgeStyle=orthogonalEdgeStyle;rounded=0;orthogonalLoop=1;jettySize=auto;html=1;" edge="1" parent="1" source="Dxom9o0QgRU7UbATrDRj-2" target="Dxom9o0QgRU7UbATrDRj-3">
          <mxGeometry relative="1" as="geometry" />
        </mxCell>
        <mxCell id="Dxom9o0QgRU7UbATrDRj-2" value="Actor" style="shape=umlActor;verticalLabelPosition=bottom;verticalAlign=top;html=1;outlineConnect=0;" vertex="1" parent="1">
          <mxGeometry x="30" y="146" width="30" height="60" as="geometry" />
        </mxCell>
        <mxCell id="Dxom9o0QgRU7UbATrDRj-14" style="edgeStyle=orthogonalEdgeStyle;rounded=0;orthogonalLoop=1;jettySize=auto;html=1;" edge="1" parent="1" source="Dxom9o0QgRU7UbATrDRj-3" target="Dxom9o0QgRU7UbATrDRj-7">
          <mxGeometry relative="1" as="geometry" />
        </mxCell>
        <mxCell id="Dxom9o0QgRU7UbATrDRj-3" value="" style="shape=image;html=1;verticalAlign=top;verticalLabelPosition=bottom;labelBackgroundColor=#ffffff;imageAspect=0;aspect=fixed;image=https://cdn3.iconfinder.com/data/icons/outline-location-icon-set/64/Cinema_ticket_1-128.png" vertex="1" parent="1">
          <mxGeometry x="128" y="125" width="50" height="50" as="geometry" />
        </mxCell>
        <mxCell id="Dxom9o0QgRU7UbATrDRj-7" value="" style="shape=image;html=1;verticalAlign=top;verticalLabelPosition=bottom;labelBackgroundColor=#ffffff;imageAspect=0;aspect=fixed;image=https://cdn2.iconfinder.com/data/icons/pinpoint-interface/48/reservation-128.png" vertex="1" parent="1">
          <mxGeometry x="289" y="135" width="71" height="71" as="geometry" />
        </mxCell>
        <mxCell id="Dxom9o0QgRU7UbATrDRj-32" style="edgeStyle=orthogonalEdgeStyle;rounded=0;orthogonalLoop=1;jettySize=auto;html=1;entryX=0;entryY=0.5;entryDx=0;entryDy=0;entryPerimeter=0;" edge="1" parent="1" source="Dxom9o0QgRU7UbATrDRj-16" target="Dxom9o0QgRU7UbATrDRj-19">
          <mxGeometry relative="1" as="geometry" />
        </mxCell>
        <mxCell id="Dxom9o0QgRU7UbATrDRj-16" value="Order&amp;nbsp; Details" style="text;html=1;strokeColor=none;fillColor=none;align=center;verticalAlign=middle;whiteSpace=wrap;rounded=0;" vertex="1" parent="1">
          <mxGeometry x="271" y="107" width="102" height="20" as="geometry" />
        </mxCell>
        <mxCell id="Dxom9o0QgRU7UbATrDRj-28" style="edgeStyle=orthogonalEdgeStyle;rounded=0;orthogonalLoop=1;jettySize=auto;html=1;" edge="1" parent="1" source="Dxom9o0QgRU7UbATrDRj-19" target="Dxom9o0QgRU7UbATrDRj-21">
          <mxGeometry relative="1" as="geometry" />
        </mxCell>
        <mxCell id="Dxom9o0QgRU7UbATrDRj-19" value="" style="aspect=fixed;pointerEvents=1;shadow=0;dashed=0;html=1;strokeColor=none;labelPosition=center;verticalLabelPosition=bottom;verticalAlign=top;align=center;shape=mxgraph.mscae.enterprise.website_generic;fillColor=#7D7D7D;" vertex="1" parent="1">
          <mxGeometry x="445" y="146" width="50" height="44" as="geometry" />
        </mxCell>
        <mxCell id="Dxom9o0QgRU7UbATrDRj-21" value="" style="pointerEvents=1;shadow=0;dashed=0;html=1;strokeColor=none;fillColor=#505050;labelPosition=center;verticalLabelPosition=bottom;verticalAlign=top;outlineConnect=0;align=center;shape=mxgraph.office.servers.office_web_apps_server;" vertex="1" parent="1">
          <mxGeometry x="607" y="140" width="52" height="56" as="geometry" />
        </mxCell>
        <mxCell id="Dxom9o0QgRU7UbATrDRj-35" value="" style="edgeStyle=orthogonalEdgeStyle;rounded=0;orthogonalLoop=1;jettySize=auto;html=1;" edge="1" parent="1" source="Dxom9o0QgRU7UbATrDRj-23" target="Dxom9o0QgRU7UbATrDRj-34">
          <mxGeometry relative="1" as="geometry" />
        </mxCell>
        <mxCell id="Dxom9o0QgRU7UbATrDRj-23" value="Authenticate" style="text;html=1;strokeColor=none;fillColor=none;align=center;verticalAlign=middle;whiteSpace=wrap;rounded=0;" vertex="1" parent="1">
          <mxGeometry x="515" y="146" width="50" height="20" as="geometry" />
        </mxCell>
        <mxCell id="Dxom9o0QgRU7UbATrDRj-45" style="edgeStyle=orthogonalEdgeStyle;rounded=0;orthogonalLoop=1;jettySize=auto;html=1;exitX=0.1;exitY=0.2;exitDx=0;exitDy=0;exitPerimeter=0;entryX=0.34;entryY=0.125;entryDx=0;entryDy=0;entryPerimeter=0;" edge="1" parent="1" source="Dxom9o0QgRU7UbATrDRj-34" target="Dxom9o0QgRU7UbATrDRj-42">
          <mxGeometry relative="1" as="geometry" />
        </mxCell>
        <mxCell id="Dxom9o0QgRU7UbATrDRj-46" style="edgeStyle=orthogonalEdgeStyle;rounded=0;orthogonalLoop=1;jettySize=auto;html=1;exitX=0.005;exitY=0.63;exitDx=0;exitDy=0;exitPerimeter=0;entryX=0.34;entryY=0.108;entryDx=0;entryDy=0;entryPerimeter=0;" edge="1" parent="1" source="Dxom9o0QgRU7UbATrDRj-34" target="Dxom9o0QgRU7UbATrDRj-43">
          <mxGeometry relative="1" as="geometry" />
        </mxCell>
        <mxCell id="Dxom9o0QgRU7UbATrDRj-54" style="edgeStyle=orthogonalEdgeStyle;rounded=0;orthogonalLoop=1;jettySize=auto;html=1;" edge="1" parent="1" source="Dxom9o0QgRU7UbATrDRj-34" target="Dxom9o0QgRU7UbATrDRj-21">
          <mxGeometry relative="1" as="geometry" />
        </mxCell>
        <mxCell id="Dxom9o0QgRU7UbATrDRj-34" value="" style="html=1;dashed=0;whitespace=wrap;fillColor=#2875E2;strokeColor=#ffffff;points=[[0.005,0.63,0],[0.1,0.2,0],[0.9,0.2,0],[0.5,0,0],[0.995,0.63,0],[0.72,0.99,0],[0.5,1,0],[0.28,0.99,0]];shape=mxgraph.kubernetes.icon;prIcon=api" vertex="1" parent="1">
          <mxGeometry x="525" y="260" width="50" height="48" as="geometry" />
        </mxCell>
        <mxCell id="Dxom9o0QgRU7UbATrDRj-36" value="Auth Service" style="text;html=1;strokeColor=none;fillColor=none;align=center;verticalAlign=middle;whiteSpace=wrap;rounded=0;" vertex="1" parent="1">
          <mxGeometry x="501" y="308" width="111" height="20" as="geometry" />
        </mxCell>
        <mxCell id="Dxom9o0QgRU7UbATrDRj-78" style="edgeStyle=orthogonalEdgeStyle;rounded=0;orthogonalLoop=1;jettySize=auto;html=1;" edge="1" parent="1" source="Dxom9o0QgRU7UbATrDRj-42">
          <mxGeometry relative="1" as="geometry">
            <mxPoint x="568" y="348" as="targetPoint" />
          </mxGeometry>
        </mxCell>
        <mxCell id="Dxom9o0QgRU7UbATrDRj-42" value="" style="html=1;dashed=0;whitespace=wrap;fillColor=#2875E2;strokeColor=#ffffff;points=[[0.005,0.63,0],[0.1,0.2,0],[0.9,0.2,0],[0.5,0,0],[0.995,0.63,0],[0.72,0.99,0],[0.5,1,0],[0.28,0.99,0]];shape=mxgraph.kubernetes.icon;prIcon=api" vertex="1" parent="1">
          <mxGeometry x="285" y="420" width="50" height="48" as="geometry" />
        </mxCell>
        <mxCell id="Dxom9o0QgRU7UbATrDRj-75" style="edgeStyle=orthogonalEdgeStyle;rounded=0;orthogonalLoop=1;jettySize=auto;html=1;entryX=0.315;entryY=1.35;entryDx=0;entryDy=0;entryPerimeter=0;" edge="1" parent="1" source="Dxom9o0QgRU7UbATrDRj-43" target="Dxom9o0QgRU7UbATrDRj-36">
          <mxGeometry relative="1" as="geometry" />
        </mxCell>
        <mxCell id="Dxom9o0QgRU7UbATrDRj-43" value="" style="html=1;dashed=0;whitespace=wrap;fillColor=#2875E2;strokeColor=#ffffff;points=[[0.005,0.63,0],[0.1,0.2,0],[0.9,0.2,0],[0.5,0,0],[0.995,0.63,0],[0.72,0.99,0],[0.5,1,0],[0.28,0.99,0]];shape=mxgraph.kubernetes.icon;prIcon=api" vertex="1" parent="1">
          <mxGeometry x="392" y="410" width="50" height="48" as="geometry" />
        </mxCell>
        <mxCell id="Dxom9o0QgRU7UbATrDRj-60" style="edgeStyle=orthogonalEdgeStyle;rounded=0;orthogonalLoop=1;jettySize=auto;html=1;entryX=0.35;entryY=-0.064;entryDx=0;entryDy=0;entryPerimeter=0;" edge="1" parent="1" source="Dxom9o0QgRU7UbATrDRj-50" target="Dxom9o0QgRU7UbATrDRj-55">
          <mxGeometry relative="1" as="geometry" />
        </mxCell>
        <mxCell id="Dxom9o0QgRU7UbATrDRj-50" value="commerce Api" style="text;html=1;strokeColor=none;fillColor=none;align=center;verticalAlign=middle;whiteSpace=wrap;rounded=0;" vertex="1" parent="1">
          <mxGeometry x="198" y="430" width="91" height="20" as="geometry" />
        </mxCell>
        <mxCell id="Dxom9o0QgRU7UbATrDRj-79" style="edgeStyle=orthogonalEdgeStyle;rounded=0;orthogonalLoop=1;jettySize=auto;html=1;" edge="1" parent="1" source="Dxom9o0QgRU7UbATrDRj-51" target="Dxom9o0QgRU7UbATrDRj-62">
          <mxGeometry relative="1" as="geometry" />
        </mxCell>
        <mxCell id="Dxom9o0QgRU7UbATrDRj-51" value="Pass Service" style="text;html=1;strokeColor=none;fillColor=none;align=center;verticalAlign=middle;whiteSpace=wrap;rounded=0;" vertex="1" parent="1">
          <mxGeometry x="371.5" y="461" width="91" height="20" as="geometry" />
        </mxCell>
        <mxCell id="Dxom9o0QgRU7UbATrDRj-55" value="Commerce Api" style="swimlane;fontStyle=0;childLayout=stackLayout;horizontal=1;startSize=36;fillColor=none;horizontalStack=0;resizeParent=1;resizeParentMax=0;resizeLast=0;collapsible=1;marginBottom=0;" vertex="1" parent="1">
          <mxGeometry x="21" y="492" width="153" height="145" as="geometry" />
        </mxCell>
        <mxCell id="Dxom9o0QgRU7UbATrDRj-56" value="Is the order details valid" style="text;strokeColor=none;fillColor=none;align=left;verticalAlign=top;spacingLeft=4;spacingRight=4;overflow=hidden;rotatable=0;points=[[0,0.5],[1,0.5]];portConstraint=eastwest;" vertex="1" parent="Dxom9o0QgRU7UbATrDRj-55">
          <mxGeometry y="36" width="153" height="26" as="geometry" />
        </mxCell>
        <mxCell id="Dxom9o0QgRU7UbATrDRj-57" value="is the order cancelled" style="text;strokeColor=none;fillColor=none;align=left;verticalAlign=top;spacingLeft=4;spacingRight=4;overflow=hidden;rotatable=0;points=[[0,0.5],[1,0.5]];portConstraint=eastwest;" vertex="1" parent="Dxom9o0QgRU7UbATrDRj-55">
          <mxGeometry y="62" width="153" height="26" as="geometry" />
        </mxCell>
        <mxCell id="Dxom9o0QgRU7UbATrDRj-58" value="Is the order expired" style="text;strokeColor=none;fillColor=none;align=left;verticalAlign=top;spacingLeft=4;spacingRight=4;overflow=hidden;rotatable=0;points=[[0,0.5],[1,0.5]];portConstraint=eastwest;" vertex="1" parent="Dxom9o0QgRU7UbATrDRj-55">
          <mxGeometry y="88" width="153" height="26" as="geometry" />
        </mxCell>
        <mxCell id="Dxom9o0QgRU7UbATrDRj-59" value="has the order been flagged" style="text;strokeColor=none;fillColor=none;align=left;verticalAlign=top;spacingLeft=4;spacingRight=4;overflow=hidden;rotatable=0;points=[[0,0.5],[1,0.5]];portConstraint=eastwest;" vertex="1" parent="Dxom9o0QgRU7UbATrDRj-55">
          <mxGeometry y="114" width="153" height="31" as="geometry" />
        </mxCell>
        <mxCell id="Dxom9o0QgRU7UbATrDRj-74" style="edgeStyle=orthogonalEdgeStyle;rounded=0;orthogonalLoop=1;jettySize=auto;html=1;entryX=0.608;entryY=-0.079;entryDx=0;entryDy=0;entryPerimeter=0;" edge="1" parent="1" source="Dxom9o0QgRU7UbATrDRj-62" target="Dxom9o0QgRU7UbATrDRj-73">
          <mxGeometry relative="1" as="geometry" />
        </mxCell>
        <mxCell id="Dxom9o0QgRU7UbATrDRj-62" value="Pass service" style="swimlane;fontStyle=0;childLayout=stackLayout;horizontal=1;startSize=36;fillColor=none;horizontalStack=0;resizeParent=1;resizeParentMax=0;resizeLast=0;collapsible=1;marginBottom=0;" vertex="1" parent="1">
          <mxGeometry x="356" y="522" width="237" height="114" as="geometry" />
        </mxCell>
        <mxCell id="Dxom9o0QgRU7UbATrDRj-63" value="has the ticket been used" style="text;strokeColor=none;fillColor=none;align=left;verticalAlign=top;spacingLeft=4;spacingRight=4;overflow=hidden;rotatable=0;points=[[0,0.5],[1,0.5]];portConstraint=eastwest;" vertex="1" parent="Dxom9o0QgRU7UbATrDRj-62">
          <mxGeometry y="36" width="237" height="26" as="geometry" />
        </mxCell>
        <mxCell id="Dxom9o0QgRU7UbATrDRj-65" value="pass status such has refund in progress " style="text;strokeColor=none;fillColor=none;align=left;verticalAlign=top;spacingLeft=4;spacingRight=4;overflow=hidden;rotatable=0;points=[[0,0.5],[1,0.5]];portConstraint=eastwest;" vertex="1" parent="Dxom9o0QgRU7UbATrDRj-62">
          <mxGeometry y="62" width="237" height="26" as="geometry" />
        </mxCell>
        <mxCell id="Dxom9o0QgRU7UbATrDRj-66" value="what attractions are valid for each ticket" style="text;strokeColor=none;fillColor=none;align=left;verticalAlign=top;spacingLeft=4;spacingRight=4;overflow=hidden;rotatable=0;points=[[0,0.5],[1,0.5]];portConstraint=eastwest;" vertex="1" parent="Dxom9o0QgRU7UbATrDRj-62">
          <mxGeometry y="88" width="237" height="26" as="geometry" />
        </mxCell>
        <mxCell id="Dxom9o0QgRU7UbATrDRj-70" value="Let User Proceed to make reservation" style="text;html=1;strokeColor=none;fillColor=none;align=center;verticalAlign=middle;whiteSpace=wrap;rounded=0;" vertex="1" parent="1">
          <mxGeometry x="30" y="661" width="118" height="38" as="geometry" />
        </mxCell>
        <mxCell id="Dxom9o0QgRU7UbATrDRj-72" style="edgeStyle=orthogonalEdgeStyle;rounded=0;orthogonalLoop=1;jettySize=auto;html=1;exitX=1;exitY=0.5;exitDx=0;exitDy=0;" edge="1" parent="1" source="Dxom9o0QgRU7UbATrDRj-59" target="Dxom9o0QgRU7UbATrDRj-70">
          <mxGeometry relative="1" as="geometry" />
        </mxCell>
        <mxCell id="Dxom9o0QgRU7UbATrDRj-73" value="Return what the user has access to make reservations for" style="text;html=1;strokeColor=none;fillColor=none;align=center;verticalAlign=middle;whiteSpace=wrap;rounded=0;" vertex="1" parent="1">
          <mxGeometry x="404" y="661" width="148" height="38" as="geometry" />
        </mxCell>
      </root>
    </mxGraphModel>
  </diagram>
</mxfile>
